Patient4_TMGait_0pt7_02_left_45_GRF.mot
version=1
nRows=45
nColumns=19
inDegrees=no
endheader
time	F1x	F1y	F1z	M1x	M1y	M1z	F2x	F2y	F2z	M2x	M2y	M2z	EC1x	EC1y	EC1z	EC2x	EC2y	EC2z
51.51	-4.2191	-19.382	7.3348	1.8937	-6.9505	-17.0711	22.887	740.2525	-59.1965	279.878	58.7483	708.5982	-0.0592	0.0182	-0.0073	-0.0462	0.0165	0.9585
51.5214	-2.7904	-11.7482	5.0528	0.8257	-4.7343	-10.1441	16.3746	736.8836	-61.5429	280.338	60.4295	702.4545	-0.0592	0.0182	-0.0073	-0.0462	0.0165	0.9585
51.5327	-1.6216	-5.2318	3.1167	-0.099002	-2.8712	-4.2022	11.4167	734.8106	-63.5004	281.0122	61.4283	696.9368	-0.0592	0.0182	-0.0073	-0.0462	0.0165	0.9585
51.5441	-0.76796	-0.19036	1.6384	-0.83095	-1.4629	0.42155	8.2657	734.2884	-64.8869	281.8797	61.6293	692.4585	-0.0592	0.0182	-0.0073	-0.0462	0.0165	0.9585
51.5554	-0.18401	3.3682	0.62238	-1.3636	-0.51009	3.7061	6.8019	735.1383	-65.7274	282.8619	61.1281	689.0109	-0.0592	0.0182	-0.0073	-0.0462	0.0165	0.9585
51.5668	0.15428	5.6509	0.0039025	-1.719	0.047299	5.8425	6.7083	736.9713	-66.1043	283.849	60.0774	686.3857	-0.0592	0.0182	-0.0073	-0.0462	0.0165	0.9585
51.5781	0.32276	6.921	-0.31895	-1.9238	0.31669	7.0546	7.6319	739.1899	-66.1284	284.6821	58.6422	684.1235	-0.0592	0.0182	-0.0073	-0.0462	0.0165	0.9585
51.5895	0.34816	7.4021	-0.42273	-1.9947	0.36871	7.5544	9.2199	741.1428	-65.9231	285.1813	56.9931	681.7082	-0.0592	0.0182	-0.0073	-0.0462	0.0165	0.9585
51.6009	0.29097	7.2723	-0.40065	-1.9397	0.29317	7.466	11.2236	742.16	-65.5971	285.1568	55.2644	678.5729	-0.0592	0.0182	-0.0073	-0.0462	0.0165	0.9585
51.6122	0.17166	6.6177	-0.29104	-1.7472	0.12458	6.8441	13.4505	741.6806	-65.2636	284.4489	53.5849	674.232	-0.0592	0.0182	-0.0073	-0.0462	0.0165	0.9585
51.6236	0.031228	5.4548	-0.14803	-1.3961	-0.078487	5.6592	15.8122	739.4483	-64.9759	282.9995	52.0002	668.4507	-0.0592	0.0182	-0.0073	-0.0462	0.0165	0.9585
51.6349	-0.11412	3.7483	0.016975	-0.85746	-0.3005	3.8483	18.2632	735.5375	-64.7779	280.872	50.5321	661.2832	-0.0592	0.0182	-0.0073	-0.0462	0.0165	0.9585
51.6463	-0.22449	1.4586	0.16419	-0.11215	-0.48916	1.3346	20.7995	730.4094	-64.6823	278.2678	49.1647	653.1028	-0.0592	0.0182	-0.0073	-0.0462	0.0165	0.9585
51.6576	-0.26236	-1.3936	0.26176	0.83332	-0.59535	-1.8699	23.4454	724.7828	-64.7206	275.4774	47.8966	644.5043	-0.0592	0.0182	-0.0073	-0.0462	0.0165	0.9585
51.669	-0.17508	-4.6435	0.25871	1.9186	-0.54189	-5.5819	26.2165	719.4592	-64.9193	272.8198	46.7264	636.155	-0.0592	0.0182	-0.0073	-0.0462	0.0165	0.9585
51.6804	0.10772	-7.8748	0.081915	2.9946	-0.22552	-9.3162	29.1457	715.2322	-65.3129	270.6022	45.6686	628.7229	-0.0592	0.0182	-0.0073	-0.0462	0.0165	0.9585
51.6917	0.64853	-10.3159	-0.33742	3.787	0.45897	-12.1793	32.1995	712.6663	-65.9445	269.0437	44.766	622.6781	-0.0592	0.0182	-0.0073	-0.0462	0.0165	0.9585
51.7031	1.5369	-10.7014	-1.0972	3.8455	1.6479	-12.7374	35.3748	711.9873	-66.8309	268.2308	44.0339	618.2095	-0.0592	0.0182	-0.0073	-0.0462	0.0165	0.9585
51.7144	2.8017	-7.2261	-2.2424	2.5291	3.4128	-8.9209	38.6114	712.946	-67.9735	268.0698	43.4886	615.1266	-0.0592	0.0182	-0.0073	-0.0462	0.0165	0.9585
51.7258	4.4624	2.4978	-3.8191	-1.0026	5.8062	1.9919	41.8327	714.8038	-69.2949	268.285	43.0885	612.8302	-0.0592	0.0182	-0.0073	-0.0462	0.0165	0.9585
51.7371	6.3926	21.2785	-5.751	-7.7249	8.7047	23.2306	44.9139	716.4075	-70.6699	268.4451	42.778	610.4145	-0.0592	0.0182	-0.0073	-0.0462	0.0165	0.9585
51.7485	8.3357	51.9715	-7.8539	-18.6157	11.7925	58.0715	47.6821	716.2503	-71.8773	267.9972	42.436	606.6886	-0.0592	0.0182	-0.0073	-0.0462	0.0165	0.9585
51.7599	9.7696	96.7605	-9.713	-34.3934	14.402	109.058	49.9323	712.6183	-72.6255	266.3141	41.9031	600.3334	-0.0592	0.0182	-0.0073	-0.0462	0.0165	0.9585
51.7712	9.8973	155.9939	-10.6354	-55.1127	15.442	176.6183	51.4848	703.6645	-72.553	262.7252	40.967	589.9031	-0.0592	0.0182	-0.0073	-0.0462	0.0165	0.9585
51.7826	7.5125	226.6536	-9.5577	-79.6234	13.2696	257.3659	52.1723	687.6558	-71.2801	256.5975	39.4021	574.0451	-0.0592	0.0182	-0.0073	-0.0462	0.0165	0.9585
51.7939	1.1192	301.382	-5.0966	-105.2575	5.8323	342.9279	51.9158	663.1887	-68.5243	247.4179	37.035	551.6306	-0.0592	0.0182	-0.0073	-0.0462	0.0165	0.9585
51.8053	-9.175	370.5359	3.7323	-128.6368	-7.8019	422.1854	50.7094	629.4821	-64.1856	234.8947	33.808	522.0305	-0.0592	0.0182	-0.0073	-0.0462	0.0165	0.9585
51.8166	-21.1284	427.8208	15.6694	-147.7016	-25.4003	487.4662	48.6375	586.5341	-58.4644	219.0071	29.8671	485.2037	-0.0592	0.0182	-0.0073	-0.0462	0.0165	0.9585
51.828	-33.2798	474.1284	28.9125	-162.8425	-44.3864	539.4753	45.7861	535.1688	-51.7983	200.0172	25.5281	441.8048	-0.0592	0.0182	-0.0073	-0.0462	0.0165	0.9585
51.8394	-44.7201	513.7166	41.6776	-175.6645	-62.4373	582.8718	42.2267	476.8543	-44.732	178.4284	21.1851	392.9952	-0.0592	0.0182	-0.0073	-0.0462	0.0165	0.9585
51.8507	-54.4018	550.5799	52.4891	-187.6607	-77.5742	622.0932	37.9972	413.5854	-37.7411	154.9476	17.1805	340.396	-0.0592	0.0182	-0.0073	-0.0462	0.0165	0.9585
51.8621	-61.5772	586.4065	60.546	-199.5021	-88.6399	659.1582	33.076	347.7044	-31.1292	130.4354	13.7368	285.9056	-0.0592	0.0182	-0.0073	-0.0462	0.0165	0.9585
51.8734	-65.7601	620.9114	65.4024	-211.1293	-95.0439	693.6859	27.4927	281.9465	-25.0538	105.9069	10.9466	231.7461	-0.0592	0.0182	-0.0073	-0.0462	0.0165	0.9585
51.8848	-66.8668	652.7708	67.8234	-222.038	-97.5913	724.3728	21.4253	219.2005	-19.6342	82.4499	8.8216	180.2488	-0.0592	0.0182	-0.0073	-0.0462	0.0165	0.9585
51.8961	-65.1094	680.7416	68.3736	-231.7435	-97.0608	749.9281	15.2717	162.2968	-14.9642	61.1305	7.2794	133.6803	-0.0592	0.0182	-0.0073	-0.0462	0.0165	0.9585
51.9075	-61.1311	704.2542	68.0616	-239.9526	-94.7803	769.9913	9.6161	113.4801	-11.0565	42.8021	6.1186	93.8034	-0.0592	0.0182	-0.0073	-0.0462	0.0165	0.9585
51.9189	-55.4675	723.1136	67.4681	-246.5469	-91.6305	784.5708	5.0012	73.904	-7.859	27.92	5.1129	61.4778	-0.0592	0.0182	-0.0073	-0.0462	0.0165	0.9585
51.9302	-48.928	737.5362	67.1543	-251.5457	-88.4988	794.1387	1.7127	43.6868	-5.2774	16.5442	4.1091	36.7592	-0.0592	0.0182	-0.0073	-0.0462	0.0165	0.9585
51.9416	-42.0712	747.7929	67.3416	-255.0381	-85.8412	799.1409	-0.34817	22.106	-3.2229	8.417	3.084	19.0531	-0.0592	0.0182	-0.0073	-0.0462	0.0165	0.9585
51.9529	-35.4344	754.464	67.8469	-257.2322	-83.6592	800.3814	-1.4161	7.9644	-1.6663	3.089	2.1146	7.4214	-0.0592	0.0182	-0.0073	-0.0462	0.0165	0.9585
51.9643	-29.2832	758.1533	68.4817	-258.3681	-81.8363	798.5699	-1.7879	-0.25504	-0.57165	-0.008352	1.2861	0.63934	-0.0592	0.0182	-0.0073	-0.0462	0.0165	0.9585
51.9756	-23.7648	759.5279	68.7475	-258.7151	-79.8995	794.5146	-1.7289	-4.1284	0.11669	-1.4703	0.6513	-2.5784	-0.0592	0.0182	-0.0073	-0.0462	0.0165	0.9585
51.987	-18.8528	759.0758	68.5288	-258.4657	-77.6965	788.7312	-1.4398	-5.1118	0.48015	-1.8465	0.21618	-3.4202	-0.0592	0.0182	-0.0073	-0.0462	0.0165	0.9585
51.9984	-14.6285	757.052	67.7285	-257.7221	-75.1296	781.5352	-1.0765	-4.4071	0.63222	-1.5886	-0.058434	-2.8505	-0.0592	0.0182	-0.0073	-0.0462	0.0165	0.9585
52.0097	-11.0128	753.6825	66.5991	-256.5481	-72.4167	773.1716	-0.70734	-2.8815	0.63084	-1.0242	-0.19189	-1.583	-0.0592	0.0182	-0.0073	-0.0462	0.0165	0.9585
